<svg xmlns="http://www.w3.org/2000/svg" width="106" height="47">
    <path fill="#2F343A" fill-rule="evenodd" d="M105.464 33.495H89.996a.537.537 0 0 1-.536-.538V13.441c0-.298.24-.539.536-.539h4.725c.297 0 .537.241.537.539v14.683h10.206c.296 0 .536.24.536.538v4.295c0 .297-.24.538-.536.538zm-13.096 7.678c.592.265 1.043.635 1.355 1.11.31.475.465 1.012.465 1.614a2.85 2.85 0 0 1-.49 1.637c-.327.481-.791.846-1.389 1.093a5.016 5.016 0 0 1-1.941.372c-.752 0-1.425-.137-2.016-.41-.592-.274-1.041-.647-1.347-1.12a2.729 2.729 0 0 1-.457-1.502c0-.999.355-1.78 1.068-2.345.712-.565 1.632-.847 2.757-.847.738 0 1.403.133 1.995.398zm-3.921.868c-.54.387-.81 1.033-.81 1.939 0 .724.259 1.295.778 1.712.516.417 1.166.626 1.947.626.796 0 1.451-.211 1.965-.632.514-.421.772-1.019.772-1.793 0-.489-.111-.917-.331-1.282a2.177 2.177 0 0 0-.965-.849 3.264 3.264 0 0 0-1.424-.302c-.749 0-1.393.193-1.932.581zm-2.941-8.546H70.038a.537.537 0 0 1-.536-.538V13.441c0-.298.24-.539.536-.539h4.725c.297 0 .537.241.537.539v14.683h10.206c.297 0 .537.24.537.538v4.295c0 .297-.24.538-.537.538zM57.831 18.222c-.389.223-.782.286-1.137.304-1.033.049-2.403-.375-2.403-.375s-11.225-2.724-16.218-3.919c-.417.223-.757.515-.858.571h.001c.02 0-1.099.991-1.099 2.247 0 1.279.54 2.196 1.409 2.395.939.212 6.458 1.539 13.277 3.193.178.053.843.286 1.17.917.194.375.222.8.084 1.233-.217.667-.805 1.064-1.576 1.064-.206 0-.356-.028-.378-.032l-.031-.008h-.004v.001l-.053-.014a3066.33 3066.33 0 0 0-12.691-3.057 1.462 1.462 0 0 1-.207.146c-.028.017-1 .633-1 1.914 0 1.345.542 2.31 1.415 2.516.972.227 9.77 2.438 14.926 3.735l3.894 1.06c.118.03 1.14.177 1.587-.067.767-.418 1.799-.061 2.175.744.378.815.073 1.781-.693 2.2-.663.361-1.437.546-2.297.546a6.161 6.161 0 0 1-1.578-.205l-3.851-1.049c-6.545-1.647-14.001-3.519-14.866-3.724-2.37-.557-3.9-2.815-3.9-5.756a5.6 5.6 0 0 1 1.376-3.726c-.883-1.03-1.376-2.452-1.376-4.026 0-2.513 2.486-4.498 2.595-4.557.062-.036.238-.216.381-.282 2.654-1.54 17.4-10.517 17.4-10.517s1.235-1.022 3.279-.62c2.51.494 18.696 3.962 20.328 4.317.042.007.081.013.12.026l.024.005-.005.004c.152.056.29.152.378.303a.726.726 0 0 1-.252.994c-.756.451-18.527 11.029-19.346 11.499zM29.832 46.665c-.474.222-1.097.334-1.867.334-.749 0-1.36-.097-1.836-.291-.476-.194-.816-.475-1.019-.843-.204-.368-.306-.871-.306-1.508v-3.476h1.058v3.472c0 .522.064.907.194 1.154.128.248.35.439.664.573.315.135.699.201 1.152.201.779 0 1.333-.132 1.663-.398.33-.265.496-.776.496-1.53v-3.472h1.057v3.476c0 .604-.09 1.084-.272 1.44-.182.356-.51.645-.984.868zM24.9 33.125a.536.536 0 0 1-.51.37h-3.591a.537.537 0 0 1-.505-.357L15.53 19.755h-.063l-4.764 13.383a.536.536 0 0 1-.505.357H6.762a.538.538 0 0 1-.51-.368L.024 14.351a.538.538 0 0 1 .509-.709h4.18c.241 0 .452.162.517.394l3.434 12.337h.062l4.512-12.377a.536.536 0 0 1 .504-.354h3.791c.228 0 .43.144.506.359l4.483 12.707h.062l3.621-12.675a.537.537 0 0 1 .515-.391h3.81a.539.539 0 0 1 .509.707L24.9 33.125zM5.773 41.592H1.054v1.842h4.419v.705H1.054v2.048h4.904v.71H-.003v-6.016h5.776v.711zm10.561-.624c.458.079.849.223 1.172.431.421.268.737.61.945 1.028.209.416.313.893.313 1.429 0 .457-.07.862-.212 1.215a2.716 2.716 0 0 1-.544.875 2.661 2.661 0 0 1-.729.546 3.503 3.503 0 0 1-.953.302 7.207 7.207 0 0 1-1.283.103h-2.884v-6.016h2.753c.62 0 1.095.03 1.422.087zm-3.118.624v4.595h1.707c.526 0 .94-.037 1.239-.111.3-.074.538-.178.717-.312.25-.189.446-.443.585-.761.141-.318.211-.705.211-1.159 0-.629-.138-1.113-.411-1.45a1.995 1.995 0 0 0-1.001-.679c-.284-.083-.739-.123-1.367-.123h-1.68zm25.516-.45a5.036 5.036 0 0 1 1.937-.363c.8 0 1.473.153 2.017.46.545.306.924.737 1.139 1.292l-1.041.185c-.185-.438-.453-.756-.806-.956-.352-.2-.795-.3-1.33-.3-.614 0-1.128.111-1.54.333-.412.221-.702.518-.869.892-.167.373-.25.758-.25 1.155 0 .511.098.958.297 1.339.197.382.506.667.923.856.418.189.87.283 1.357.283.593 0 1.094-.129 1.504-.386.411-.257.688-.638.834-1.144l1.058.201a2.693 2.693 0 0 1-1.197 1.495c-.576.343-1.279.515-2.111.515-.862 0-1.561-.132-2.101-.396a2.754 2.754 0 0 1-1.232-1.147 3.227 3.227 0 0 1-.422-1.612c0-.627.158-1.173.476-1.639.318-.466.77-.821 1.357-1.063zm14.652-.261l3.27 6.016h-1.205l-.932-1.822h-3.341l-.877 1.822h-1.123l3.068-6.016h1.14zm.806 3.546l-.834-1.666a13.734 13.734 0 0 1-.566-1.248 6.308 6.308 0 0 1-.432 1.149l-.877 1.765h2.709zm14.376-2.835h-2.644v5.305h-1.056v-5.305h-2.633v-.711h6.333v.711zm9.846 5.305h-1.057v-6.016h1.057v6.016zm26.573-1.293v-4.723H106v6.016h-1.085l-4.197-4.727v4.727h-1.013v-6.016h1.085l4.195 4.723z"/>
</svg>
